<!DOCTYPE svg PUBLIC "-//W3C//DTD SVG 20010904//EN" "http://www.w3.org/TR/2001/REC-SVG-20010904/DTD/svg10.dtd">
<svg version="1.0" xmlns="http://www.w3.org/2000/svg" width="584px" height="258px" viewBox="0 0 5840 2580" preserveAspectRatio="xMidYMid meet">
<g id="layer1" fill="#000000" stroke="none">
 <path d="M597 2503 c-13 -12 -7 -60 8 -73 9 -8 15 -30 15 -60 0 -30 6 -52 15 -60 8 -7 15 -27 15 -45 0 -18 7 -38 15 -45 9 -8 15 -30 15 -60 0 -30 6 -52 15 -60 12 -10 15 -49 15 -230 0 -181 -3 -220 -15 -230 -8 -7 -15 -20 -15 -30 0 -10 -7 -23 -15 -30 -8 -7 -15 -27 -15 -45 0 -18 -7 -38 -15 -45 -8 -7 -15 -20 -15 -30 0 -10 -7 -23 -15 -30 -8 -7 -15 -20 -15 -30 0 -10 -7 -23 -15 -30 -8 -7 -15 -27 -15 -45 0 -18 -7 -38 -15 -45 -8 -7 -15 -20 -15 -30 0 -10 -7 -23 -15 -30 -8 -7 -15 -20 -15 -29 0 -8 -41 -57 -91 -107 -112 -112 -112 -124 -7 -124 l74 0 74 75 c41 41 81 75 90 75 20 0 210 191 210 211 0 9 7 22 15 29 8 7 15 20 15 29 0 10 13 30 29 46 17 15 31 37 33 49 3 18 11 21 59 24 41 2 59 -1 69 -13 7 -8 20 -15 29 -15 9 0 37 -20 61 -45 24 -25 51 -45 60 -45 9 0 29 -13 45 -30 16 -16 36 -30 45 -30 9 0 29 -13 45 -30 16 -16 36 -30 45 -30 9 0 36 -20 60 -45 24 -25 51 -45 60 -45 9 0 29 -13 45 -30 16 -16 36 -30 45 -30 9 0 29 -13 45 -30 16 -16 36 -30 46 -30 9 0 22 -7 29 -15 7 -8 20 -15 29 -15 10 0 30 -13 46 -29 15 -17 37 -31 49 -33 11 -2 22 -12 24 -23 2 -11 11 -28 20 -38 15 -17 9 -25 -92 -126 -76 -77 -107 -114 -103 -125 8 -20 60 -21 77 -1 7 8 20 15 30 15 10 0 23 7 30 15 7 8 27 15 45 15 18 0 38 7 45 15 7 8 20 15 30 15 10 0 23 7 30 15 9 11 35 15 105 15 70 0 96 4 105 15 18 21 172 21 190 0 7 -8 27 -15 45 -15 18 0 38 -7 45 -15 7 -8 27 -15 45 -15 18 0 38 -7 45 -15 7 -8 27 -15 45 -15 18 0 38 -7 45 -15 7 -8 20 -15 30 -15 10 0 23 -7 30 -15 7 -8 27 -15 45 -15 18 0 38 -7 45 -15 7 -8 27 -15 45 -15 18 0 38 -7 45 -15 7 -8 27 -15 45 -15 18 0 38 -7 45 -15 7 -8 27 -15 45 -15 18 0 38 -7 45 -15 7 -8 27 -15 45 -15 18 0 38 -7 45 -15 7 -8 20 -15 30 -15 10 0 23 -7 30 -15 7 -8 27 -15 44 -15 36 0 76 -34 76 -65 0 -11 -40 -60 -91 -111 -108 -109 -111 -124 -21 -124 41 0 64 5 72 15 9 11 33 15 90 15 57 0 81 4 90 15 9 10 32 15 75 15 43 0 66 5 75 15 7 8 27 15 45 15 18 0 38 7 45 15 7 8 27 15 45 15 18 0 38 7 45 15 7 8 20 15 30 15 10 0 23 7 30 15 7 8 27 15 45 15 18 0 38 7 45 15 7 8 27 15 45 15 18 0 38 7 45 15 18 22 202 22 220 0 18 -22 272 -22 290 0 8 9 30 15 60 15 30 0 52 6 60 15 8 9 30 15 60 15 30 0 52 6 60 15 8 9 30 15 60 15 30 0 52 6 60 15 7 8 20 15 30 15 10 0 23 7 30 15 7 8 20 15 29 15 10 0 30 13 46 30 16 16 36 30 45 30 9 0 29 13 45 30 16 16 36 30 45 30 9 0 29 14 45 30 16 16 36 30 45 30 9 0 29 13 45 30 16 16 36 30 45 30 20 0 60 41 60 62 0 9 7 21 15 28 8 7 15 27 15 45 0 18 7 38 16 45 9 8 14 25 12 44 -3 28 -7 31 -40 34 -20 2 -42 10 -48 18 -7 8 -27 14 -45 14 -18 0 -38 7 -45 15 -7 8 -27 15 -45 15 -18 0 -38 7 -45 15 -7 8 -20 15 -30 15 -10 0 -23 7 -30 15 -7 8 -20 15 -30 15 -10 0 -23 7 -30 15 -7 8 -20 15 -30 15 -10 0 -23 7 -30 15 -7 8 -20 15 -30 15 -9 0 -24 8 -34 18 -15 18 -15 20 2 35 23 21 56 22 72 2 7 -8 27 -15 45 -15 18 0 38 -7 45 -15 7 -8 20 -15 30 -15 10 0 23 -7 30 -15 8 -9 30 -15 60 -15 30 0 52 -6 60 -15 8 -9 30 -15 58 -15 28 0 52 -6 63 -16 10 -9 25 -14 34 -11 20 8 20 61 0 77 -8 7 -15 20 -15 29 0 21 -100 121 -121 121 -8 0 -35 20 -59 45 -24 25 -51 45 -60 45 -9 0 -36 20 -60 45 -24 25 -52 45 -61 45 -9 0 -22 7 -29 15 -7 8 -20 15 -30 15 -10 0 -23 7 -30 15 -7 8 -20 15 -30 15 -10 0 -23 7 -30 15 -7 8 -20 15 -30 15 -10 0 -23 7 -30 15 -7 8 -20 15 -30 15 -10 0 -23 7 -30 15 -7 8 -20 15 -30 15 -10 0 -23 7 -30 15 -7 8 -20 15 -30 15 -10 0 -23 7 -30 15 -7 8 -20 15 -30 15 -10 0 -23 7 -30 15 -7 8 -20 15 -30 15 -10 0 -23 7 -30 15 -8 9 -30 15 -60 15 -30 0 -52 6 -60 15 -9 11 -35 15 -105 15 -70 0 -96 4 -105 15 -8 9 -30 15 -59 15 -37 0 -53 5 -69 23 -12 13 -22 30 -22 38 0 8 -20 35 -45 59 -25 24 -45 51 -45 60 0 20 -101 120 -122 120 -8 0 -21 7 -28 15 -7 8 -20 15 -30 15 -10 0 -23 7 -30 15 -7 8 -20 15 -30 15 -10 0 -23 7 -30 15 -7 8 -20 15 -30 15 -10 0 -23 7 -30 15 -7 8 -20 15 -30 15 -10 0 -23 7 -30 15 -7 8 -20 15 -30 15 -10 0 -23 7 -30 15 -16 20 -69 20 -77 0 -3 -9 2 -24 11 -34 9 -10 16 -24 16 -32 0 -9 14 -28 30 -44 17 -16 30 -36 30 -46 0 -9 7 -22 15 -29 8 -7 15 -26 15 -43 0 -17 7 -38 16 -48 9 -10 13 -23 9 -28 -9 -16 -51 -13 -65 4 -9 11 -35 15 -105 15 -70 0 -96 4 -105 15 -9 11 -35 15 -105 15 -70 0 -96 4 -105 15 -18 22 -392 22 -410 0 -10 -12 -47 -15 -210 -15 -163 0 -200 -3 -210 -15 -9 -11 -33 -15 -90 -15 -57 0 -81 -4 -90 -15 -9 -11 -33 -15 -90 -15 -57 0 -81 -4 -90 -15 -9 -11 -35 -15 -105 -15 -70 0 -96 -4 -105 -15 -9 -11 -33 -15 -90 -15 -57 0 -81 -4 -90 -15 -9 -10 -32 -15 -75 -15 -43 0 -66 -5 -75 -15 -7 -8 -27 -15 -45 -15 -18 0 -38 -7 -45 -15 -7 -8 -27 -15 -45 -15 -18 0 -38 -7 -45 -15 -8 -9 -30 -15 -58 -15 -25 0 -53 -6 -61 -14 -22 -19 -101 -28 -101 -11 0 7 -7 18 -15 25 -9 8 -15 30 -15 60 0 30 -6 52 -15 60 -8 7 -15 27 -15 45 0 18 -7 38 -15 45 -8 7 -15 20 -15 29 0 10 -13 30 -30 46 -16 16 -30 36 -30 45 0 9 -13 29 -30 45 -16 16 -30 36 -30 45 0 9 -13 29 -30 45 -16 16 -30 36 -30 45 0 9 -20 36 -45 60 -25 24 -45 51 -45 60 0 18 -40 60 -56 60 -6 0 -14 -3 -17 -7z m4155 -1520 c21 -20 38 -46 38 -57 0 -11 -17 -37 -37 -58 -51 -52 -92 -52 -145 -1 -21 20 -38 46 -38 57 0 11 17 37 37 58 51 52 92 52 145 1z"/>
 </g>

</svg>